# xmcd CD database file
#
# Track frame offsets:
#	150
#	20841
#	44434
#	68228
#	89541
#	112678
#	140434
#	158203
#	180525
#
# Disc length: 2693 seconds
#
# Revision: 0
# Processed by: cddbd v1.5.1PL0 Copyright (c) Steve Scherf et al.
# Submitted via: CDex 1.50
#
DISCID=750a8309
DTITLE=Various Artist - Morning Blend
DYEAR=1900
DGENRE=New Age
TTITLE0=Sign of the Times
TTITLE1=Just Between Us
TTITLE2=Sailcats
TTITLE3=Andy's Tune #2
TTITLE4=Dancing with the Bear
TTITLE5=Ekanga
TTITLE6=Sporty!
TTITLE7=Fun Tango
TTITLE8=Those
EXTD=
EXTT0=
EXTT1=
EXTT2=
EXTT3=
EXTT4=
EXTT5=
EXTT6=
EXTT7=
EXTT8=
PLAYORDER=
